<svg width="1021" height="301" xmlns="http://www.w3.org/2000/svg" xmlns:xlink="http://www.w3.org/1999/xlink" overflow="hidden"><defs><clipPath id="clip0"><rect x="64" y="128" width="1021" height="301"/></clipPath></defs><g clip-path="url(#clip0)" transform="translate(-64 -128)"><rect x="262.5" y="293.5" width="43" height="134" stroke="#7F7F7F" stroke-width="1.33333" stroke-miterlimit="8" fill="#8FAADC"/><text fill="#404040" font-family="DengXian,DengXian_MSFontService,sans-serif" font-weight="400" font-size="24" transform="matrix(-1.83697e-16 -1 1 -1.83697e-16 291.187 386)">Conv</text><rect x="305.5" y="293.5" width="44" height="134" stroke="#7F7F7F" stroke-width="1.33333" stroke-miterlimit="8" fill="#FFD966"/><text fill="#404040" font-family="DengXian,DengXian_MSFontService,sans-serif" font-weight="400" font-size="24" transform="matrix(-1.83697e-16 -1 1 -1.83697e-16 334.572 393)">PReLU</text><rect x="219.5" y="293.5" width="43" height="134" stroke="#7F7F7F" stroke-width="1.33333" stroke-miterlimit="8" fill="#BFBFBF"/><text fill="#404040" font-family="DengXian,DengXian_MSFontService,sans-serif" font-weight="400" font-size="24" transform="matrix(-1.83697e-16 -1 1 -1.83697e-16 247.803 414)">Bottleneck</text><rect x="487.5" y="293.5" width="43" height="134" stroke="#7F7F7F" stroke-width="1.33333" stroke-miterlimit="8" fill="#8FAADC"/><text fill="#404040" font-family="DengXian,DengXian_MSFontService,sans-serif" font-weight="400" font-size="24" transform="matrix(-1.83697e-16 -1 1 -1.83697e-16 515.997 386)">Conv</text><rect x="530.5" y="293.5" width="43" height="134" stroke="#7F7F7F" stroke-width="1.33333" stroke-miterlimit="8" fill="#FFD966"/><text fill="#404040" font-family="DengXian,DengXian_MSFontService,sans-serif" font-weight="400" font-size="24" transform="matrix(-1.83697e-16 -1 1 -1.83697e-16 559.382 393)">PReLU</text><rect x="443.5" y="293.5" width="44" height="134" stroke="#7F7F7F" stroke-width="1.33333" stroke-miterlimit="8" fill="#BFBFBF"/><text fill="#404040" font-family="DengXian,DengXian_MSFontService,sans-serif" font-weight="400" font-size="24" transform="matrix(-1.83697e-16 -1 1 -1.83697e-16 472.613 414)">Bottleneck</text><rect x="712.5" y="293.5" width="43" height="134" stroke="#7F7F7F" stroke-width="1.33333" stroke-miterlimit="8" fill="#8FAADC"/><text fill="#404040" font-family="DengXian,DengXian_MSFontService,sans-serif" font-weight="400" font-size="24" transform="matrix(-1.83697e-16 -1 1 -1.83697e-16 740.808 386)">Conv</text><rect x="755.5" y="293.5" width="43" height="134" stroke="#7F7F7F" stroke-width="1.33333" stroke-miterlimit="8" fill="#FFD966"/><text fill="#404040" font-family="DengXian,DengXian_MSFontService,sans-serif" font-weight="400" font-size="24" transform="matrix(-1.83697e-16 -1 1 -1.83697e-16 784.192 393)">PReLU</text><rect x="668.5" y="293.5" width="44" height="134" stroke="#7F7F7F" stroke-width="1.33333" stroke-miterlimit="8" fill="#BFBFBF"/><text fill="#404040" font-family="DengXian,DengXian_MSFontService,sans-serif" font-weight="400" font-size="24" transform="matrix(-1.83697e-16 -1 1 -1.83697e-16 697.423 414)">Bottleneck</text><path d="M349.5 359.167 437.49 359.167 437.49 361.833 349.5 361.833ZM436.156 356.5 444.156 360.5 436.156 364.5Z" fill="#7F7F7F"/><path d="M77.5001 359.167 212.818 359.167 212.818 361.833 77.5001 361.833ZM211.485 356.5 219.485 360.5 211.485 364.5Z" fill="#7F7F7F"/><path d="M4.43654e-06-1.33333 87.9899-1.33304 87.9899 1.33363-4.43654e-06 1.33333ZM86.6566-3.99971 94.6566 0.000314961 86.6566 4.00029Z" fill="#7F7F7F" transform="matrix(1 0 0 -1 798.5 360.5)"/><rect x="893.5" y="293.5" width="43" height="134" stroke="#7F7F7F" stroke-width="1.33333" stroke-miterlimit="8" fill="#BFBFBF"/><text fill="#404040" font-family="DengXian,DengXian_MSFontService,sans-serif" font-weight="400" font-size="24" transform="matrix(-1.83697e-16 -1 1 -1.83697e-16 922.234 414)">Bottleneck</text><path d="M936.5 359.167 1054.64 359.167 1054.64 361.834 936.5 361.833ZM1053.31 356.5 1061.31 360.5 1053.31 364.5Z" fill="#7F7F7F"/><path d="M620.314 360.5 618.983 354.743 620.169 354.743C617.133 294.65 567.996 247.5 508.407 247.5 567.996 247.5 617.133 294.65 620.169 354.743L621.355 354.743Z" fill="#4472C4" fill-rule="evenodd"/><path d="M508.407 247.5C446.603 247.5 396.5 298.092 396.5 360.5L396.5 360.5C396.5 298.092 446.603 247.5 508.407 247.5Z" fill="#375C9E" fill-rule="evenodd"/><path d="M508.407 247.5C446.603 247.5 396.5 298.092 396.5 360.5L396.5 360.5C396.5 298.092 446.603 247.5 508.407 247.5L508.407 247.5C567.996 247.5 617.133 294.65 620.169 354.743L621.355 354.743 620.314 360.5 618.983 354.743 620.169 354.743C617.133 294.65 567.996 247.5 508.407 247.5" stroke="#7F7F7F" stroke-width="2.66667" stroke-miterlimit="8" fill="none" fill-rule="evenodd"/><path d="M845.314 360.5 843.983 354.743 845.169 354.743C842.133 294.65 792.996 247.5 733.407 247.5 792.996 247.5 842.133 294.65 845.169 354.743L846.355 354.743Z" fill="#4472C4" fill-rule="evenodd"/><path d="M733.407 247.5C671.603 247.5 621.5 298.092 621.5 360.5L621.5 360.5C621.5 298.092 671.603 247.5 733.407 247.5Z" fill="#375C9E" fill-rule="evenodd"/><path d="M733.407 247.5C671.603 247.5 621.5 298.092 621.5 360.5L621.5 360.5C621.5 298.092 671.603 247.5 733.407 247.5L733.407 247.5C792.996 247.5 842.133 294.65 845.169 354.743L846.355 354.743 845.314 360.5 843.983 354.743 845.169 354.743C842.133 294.65 792.996 247.5 733.407 247.5" stroke="#7F7F7F" stroke-width="2.66667" stroke-miterlimit="8" fill="none" fill-rule="evenodd"/><path d="M395.314 360.5 393.983 354.743 395.169 354.743C392.133 294.65 342.996 247.5 283.407 247.5 342.996 247.5 392.133 294.65 395.169 354.743L396.355 354.743Z" fill="#4472C4" fill-rule="evenodd"/><path d="M283.407 247.5C221.603 247.5 171.5 298.092 171.5 360.5L171.5 360.5C171.5 298.092 221.603 247.5 283.407 247.5Z" fill="#375C9E" fill-rule="evenodd"/><path d="M283.407 247.5C221.603 247.5 171.5 298.092 171.5 360.5L171.5 360.5C171.5 298.092 221.603 247.5 283.407 247.5L283.407 247.5C342.996 247.5 392.133 294.65 395.169 354.743L396.355 354.743 395.314 360.5 393.983 354.743 395.169 354.743C392.133 294.65 342.996 247.5 283.407 247.5" stroke="#7F7F7F" stroke-width="2.66667" stroke-miterlimit="8" fill="none" fill-rule="evenodd"/><path d="M619.674 360.5 617.557 351.635 619.383 351.635C613.303 259.103 514.909 186.5 395.587 186.5 514.909 186.5 613.303 259.103 619.383 351.635L621.209 351.635Z" fill="#4472C4" fill-rule="evenodd"/><path d="M395.587 186.5C271.827 186.5 171.5 264.403 171.5 360.5L171.5 360.5C171.5 264.403 271.827 186.5 395.587 186.5Z" fill="#375C9E" fill-rule="evenodd"/><path d="M395.587 186.5C271.827 186.5 171.5 264.403 171.5 360.5L171.5 360.5C171.5 264.403 271.827 186.5 395.587 186.5L395.587 186.5C514.91 186.5 613.304 259.103 619.383 351.635L621.209 351.635 619.674 360.5 617.557 351.635 619.383 351.635C613.303 259.103 514.909 186.5 395.587 186.5" stroke="#7F7F7F" stroke-width="2.66667" stroke-miterlimit="8" fill="none" fill-rule="evenodd"/><path d="M844.674 360.5 842.557 351.635 844.383 351.635C838.303 259.103 739.909 186.5 620.587 186.5 739.909 186.5 838.303 259.103 844.383 351.635L846.209 351.635Z" fill="#4472C4" fill-rule="evenodd"/><path d="M620.587 186.5C496.827 186.5 396.5 264.403 396.5 360.5L396.5 360.5C396.5 264.403 496.827 186.5 620.587 186.5Z" fill="#375C9E" fill-rule="evenodd"/><path d="M620.587 186.5C496.827 186.5 396.5 264.403 396.5 360.5L396.5 360.5C396.5 264.403 496.827 186.5 620.587 186.5L620.587 186.5C739.91 186.5 838.304 259.103 844.383 351.635L846.209 351.635 844.674 360.5 842.557 351.635 844.383 351.635C838.303 259.103 739.909 186.5 620.587 186.5" stroke="#7F7F7F" stroke-width="2.66667" stroke-miterlimit="8" fill="none" fill-rule="evenodd"/><path d="M844.086 360.5 841.235 348.781 843.649 348.781C834.526 226.469 686.863 130.5 507.793 130.5 686.863 130.5 834.526 226.469 843.649 348.781L846.063 348.781Z" fill="#4472C4" fill-rule="evenodd"/><path d="M507.793 130.5C322.064 130.5 171.5 233.475 171.5 360.5L171.5 360.5C171.5 233.475 322.064 130.5 507.793 130.5Z" fill="#375C9E" fill-rule="evenodd"/><path d="M507.793 130.5C322.064 130.5 171.5 233.475 171.5 360.5L171.5 360.5C171.5 233.475 322.064 130.5 507.793 130.5L507.793 130.5C686.863 130.5 834.526 226.47 843.649 348.782L846.063 348.781 844.086 360.5 841.235 348.781 843.649 348.781C834.526 226.469 686.863 130.5 507.793 130.5" stroke="#7F7F7F" stroke-width="2.66667" stroke-miterlimit="8" fill="none" fill-rule="evenodd"/><text fill="#404040" font-family="Cambria Math,Cambria Math_MSFontService,sans-serif" font-weight="400" font-size="37" transform="translate(70.0279 344)">ğ‘…ğ·<tspan x="50.76" y="0">ğµ</tspan><tspan font-size="27" x="71.98" y="8">ğ‘›</tspan><tspan x="883.571" y="0">ğ‘…ğ·</tspan><tspan x="934.331" y="0">ğµ</tspan><tspan font-size="27" x="957.191" y="8">ğ‘›</tspan><tspan font-size="27" x="975.325" y="8">+</tspan><tspan font-size="27" x="995.158" y="8">1</tspan><tspan font-family="Source Han Sans SC,Source Han Sans SC_MSFontService,sans-serif" font-weight="700" font-size="24" x="514.526" y="24">Â·Â·Â·</tspan></text></g></svg>